# xmcd
#
# Track frame offsets:
#	150
#	16170
#	32772
#	48142
#	61455
#	76995
#	97590
#	119117
#	138367
#	154030
#	169640
#	189137
#	207540
#	225720
#	239190
#	260192
#
# Disc length: 3723 seconds
#
# Revision: 0
# Processed by: cddbd v1.4PL0 Copyright (c) Steve Scherf et al.
# Submitted via: audiograbber 1.80
#
DISCID=d50e8910
DTITLE=Enrico Caruso - Complete Recordings Vol.7
DYEAR=1900
DGENRE=
TTITLE0=Mal reggendo all'apro assalto
TTITLE1=Gia i sacerdoti adunansi
TTITLE2=Misero appien mi festi
TTITLE3=Di' tu se fedele
TTITLE4=Testa Adorata
TTITLE5=Eternemente
TTITLE6=Core 'Ngrato
TTITLE7=Quando nascesti tu
TTITLE8=Cante pe' me
TTITLE9=Io non ho che una povera stanzetta
TTITLE10=Una furtiva lagrima
TTITLE11=Invano Alvaro ti celasti mondo
TTITLE12=La Minaccie, i fierie accenti
TTITLE13=Love is mine
TTITLE14=Celeste Aida
TTITLE15=Ma se m'e forza perderti
EXTD=
EXTT0=
EXTT1=
EXTT2=
EXTT3=
EXTT4=
EXTT5=
EXTT6=
EXTT7=
EXTT8=
EXTT9=
EXTT10=
EXTT11=
EXTT12=
EXTT13=
EXTT14=
EXTT15=
PLAYORDER=
